<?xml version="1.0" encoding="UTF-8"?>
<svg xmlns="http://www.w3.org/2000/svg" xmlns:xlink="http://www.w3.org/1999/xlink" width="375pt" height="374.999991pt" viewBox="0 0 375 374.999991" version="1.2">
<defs>
<clipPath id="clip1">
  <path d="M 3.046875 4 L 372 4 L 372 373 L 3.046875 373 Z M 3.046875 4 "/>
</clipPath>
<clipPath id="clip2">
  <path d="M 3.046875 0 L 172.511719 0 L 172.511719 169.464844 L 3.046875 169.464844 Z M 3.046875 0 "/>
</clipPath>
</defs>
<g id="surface1">
<rect x="0" y="0" width="375" height="374.999991" style="fill:rgb(100%,100%,100%);fill-opacity:1;stroke:none;"/>
<rect x="0" y="0" width="375" height="374.999991" style="fill:rgb(100%,100%,100%);fill-opacity:1;stroke:none;"/>
<rect x="0" y="0" width="375" height="374.999991" style="fill:rgb(100%,100%,100%);fill-opacity:1;stroke:none;"/>
<g clip-path="url(#clip1)" clip-rule="nonzero">
<path style=" stroke:none;fill-rule:nonzero;fill:rgb(6.269836%,5.879211%,5.099487%);fill-opacity:1;" d="M 87.5 282.976562 L 104.230469 257.921875 L 118.378906 272.066406 L 93.3125 288.785156 C 92.316406 289.441406 91.003906 289.296875 90.152344 288.46875 L 87.816406 286.136719 C 86.992188 285.285156 86.84375 283.972656 87.5 282.976562 Z M 106.757812 216.902344 L 117.527344 227.667969 C 118.742188 228.882812 120.324219 229.492188 121.929688 229.492188 C 123.535156 229.492188 125.113281 228.882812 126.328125 227.667969 C 128.761719 225.238281 128.761719 221.300781 126.328125 218.871094 L 115.679688 208.230469 L 132.066406 192.433594 L 142.425781 202.785156 C 143.640625 204 145.222656 204.609375 146.824219 204.609375 C 148.429688 204.609375 150.011719 204 151.226562 202.785156 C 153.65625 200.355469 153.65625 196.417969 151.226562 193.988281 L 141.015625 183.78125 L 157.402344 167.988281 L 167.320312 177.902344 C 168.535156 179.117188 170.117188 179.722656 171.722656 179.722656 C 173.328125 179.722656 174.90625 179.117188 176.121094 177.902344 C 178.554688 175.472656 178.554688 171.535156 176.121094 169.105469 L 166.375 159.335938 L 182.761719 143.539062 L 192.21875 153.015625 C 193.433594 154.230469 195.015625 154.839844 196.617188 154.839844 C 198.222656 154.839844 199.804688 154.230469 201.019531 153.015625 C 203.449219 150.585938 203.449219 146.648438 201.019531 144.21875 L 191.707031 134.914062 L 208.09375 119.117188 L 257.257812 168.253906 L 159.929688 269.101562 C 156.429688 272.746094 151.710938 274.765625 146.65625 274.8125 C 141.71875 274.765625 136.855469 272.941406 133.28125 269.371094 L 120.105469 256.199219 L 106.953125 243.027344 C 103.378906 239.457031 101.433594 234.714844 101.480469 229.660156 C 101.503906 224.851562 103.425781 220.355469 106.757812 216.902344 Z M 268.730469 80.1875 L 227.738281 121.160156 L 217.042969 110.464844 L 258.789062 70.25 Z M 314.878906 51.660156 L 324.75 61.523438 L 296.207031 90.054688 L 286.335938 80.1875 Z M 309.40625 19.800781 L 310.476562 18.730469 C 311.691406 17.515625 313.273438 16.90625 314.878906 16.90625 C 316.484375 16.90625 318.0625 17.515625 319.277344 18.730469 L 357.695312 57.125 C 358.886719 58.292969 359.515625 59.871094 359.515625 61.523438 C 359.515625 63.175781 358.886719 64.757812 357.695312 65.921875 L 356.625 66.992188 C 354.191406 69.421875 350.253906 69.421875 347.824219 66.992188 L 309.40625 28.597656 C 308.214844 27.429688 307.585938 25.851562 307.585938 24.199219 C 307.585938 22.546875 308.214844 20.964844 309.40625 19.800781 Z M 236.542969 129.957031 L 277.53125 88.984375 L 287.402344 98.851562 L 246.414062 139.820312 Z M 306.148438 117.585938 L 265.910156 159.3125 L 255.214844 148.617188 L 296.207031 107.648438 Z M 9.894531 372.574219 C 11.5 372.574219 13.078125 371.96875 14.292969 370.753906 L 85.144531 299.941406 C 87.257812 301.007812 89.566406 301.640625 91.925781 301.640625 C 94.796875 301.640625 97.6875 300.816406 100.21875 299.136719 L 127.691406 280.816406 C 133.089844 284.921875 139.578125 287.253906 146.460938 287.253906 C 146.582031 287.253906 146.679688 287.253906 146.777344 287.253906 C 155.214844 287.183594 163.066406 283.78125 168.902344 277.730469 L 314.949219 126.382812 L 316.703125 128.132812 C 317.917969 129.347656 319.496094 129.957031 321.101562 129.957031 C 322.707031 129.957031 324.289062 129.347656 325.503906 128.132812 C 327.933594 125.703125 327.933594 121.765625 325.503906 119.335938 L 305.007812 98.851562 L 333.550781 70.320312 L 339.019531 75.789062 C 342.667969 79.433594 347.433594 81.230469 352.222656 81.230469 C 357.011719 81.230469 361.777344 79.433594 365.425781 75.789062 L 366.496094 74.71875 C 370.019531 71.195312 371.964844 66.507812 371.964844 61.523438 C 371.964844 56.542969 370.019531 51.851562 366.496094 48.328125 L 328.082031 9.933594 C 320.8125 2.667969 308.96875 2.667969 301.675781 9.933594 L 300.605469 11.003906 C 297.082031 14.527344 295.136719 19.214844 295.136719 24.199219 C 295.136719 29.179688 297.082031 33.871094 300.605469 37.394531 L 306.078125 42.863281 L 277.53125 71.390625 L 257.035156 50.90625 C 254.605469 48.476562 250.667969 48.476562 248.234375 50.90625 C 245.804688 53.335938 245.804688 57.273438 248.234375 59.703125 L 249.984375 61.453125 L 98.5625 207.425781 C 92.507812 213.257812 89.105469 221.109375 89.03125 229.539062 C 88.960938 236.539062 91.292969 243.125 95.476562 248.59375 L 77.144531 276.078125 C 74.082031 280.667969 73.910156 286.453125 76.316406 291.167969 L 5.492188 361.957031 C 3.0625 364.386719 3.0625 368.324219 5.492188 370.753906 C 6.707031 371.96875 8.289062 372.574219 9.894531 372.574219 "/>
</g>
<path style=" stroke:none;fill-rule:nonzero;fill:rgb(6.269836%,5.879211%,5.099487%);fill-opacity:1;" d="M 87.78125 45.191406 C 81.546875 45.191406 76.480469 50.253906 76.480469 56.488281 C 76.480469 62.722656 81.546875 67.785156 87.78125 67.785156 C 89.335938 67.785156 90.605469 66.515625 90.605469 64.960938 C 90.605469 63.40625 89.335938 62.136719 87.78125 62.136719 C 84.667969 62.136719 82.128906 59.597656 82.128906 56.488281 C 82.128906 53.378906 84.667969 50.839844 87.78125 50.839844 C 90.890625 50.839844 93.429688 53.378906 93.429688 56.488281 C 93.429688 57.140625 93.316406 57.777344 93.109375 58.386719 C 92.578125 59.851562 93.351562 61.464844 94.816406 61.992188 C 96.296875 62.511719 97.90625 61.738281 98.425781 60.273438 C 98.855469 59.058594 99.078125 57.789062 99.078125 56.488281 C 99.078125 50.253906 94.011719 45.191406 87.78125 45.191406 "/>
<g clip-path="url(#clip2)" clip-rule="nonzero">
<path style=" stroke:none;fill-rule:nonzero;fill:rgb(6.269836%,5.879211%,5.099487%);fill-opacity:1;" d="M 135.707031 92.554688 L 137.96875 92.410156 C 137.4375 96.117188 136.46875 99.703125 135.089844 103.179688 L 133.203125 101.933594 C 131.898438 101.0625 130.144531 101.425781 129.273438 102.726562 C 128.425781 104.027344 128.789062 105.773438 130.089844 106.65625 L 145.28125 116.652344 C 146.21875 117.269531 147.402344 117.269531 148.359375 116.671875 C 150.113281 115.546875 152.375 115.492188 154.207031 116.5625 C 156.890625 118.117188 157.828125 121.558594 156.269531 124.273438 C 155.511719 125.574219 154.296875 126.535156 152.828125 126.898438 C 151.382812 127.296875 149.859375 127.097656 148.558594 126.335938 C 146.726562 125.289062 145.625 123.3125 145.734375 121.21875 C 145.769531 120.09375 145.171875 119.078125 144.179688 118.570312 L 127.917969 110.40625 C 126.503906 109.734375 124.804688 110.296875 124.132812 111.675781 C 123.425781 113.066406 123.988281 114.753906 125.367188 115.457031 L 127.410156 116.472656 C 125.09375 119.386719 122.433594 122.046875 119.519531 124.363281 L 118.503906 122.320312 C 117.800781 120.941406 116.113281 120.378906 114.722656 121.085938 C 113.34375 121.757812 112.78125 123.457031 113.453125 124.871094 L 121.617188 141.132812 C 122.125 142.125 123.117188 142.6875 124.265625 142.6875 C 126.359375 142.578125 128.335938 143.679688 129.382812 145.511719 C 130.144531 146.8125 130.34375 148.335938 129.945312 149.78125 C 129.582031 151.25 128.621094 152.464844 127.320312 153.222656 C 124.605469 154.78125 121.164062 153.84375 119.609375 151.160156 C 118.539062 149.328125 118.59375 147.066406 119.71875 145.3125 C 120.316406 144.355469 120.316406 143.171875 119.699219 142.234375 L 109.703125 127.042969 C 108.820312 125.742188 107.074219 125.378906 105.773438 126.226562 C 104.472656 127.097656 104.109375 128.851562 104.980469 130.15625 L 106.226562 132.042969 C 102.75 133.421875 99.164062 134.390625 95.457031 134.921875 L 95.601562 132.660156 C 95.691406 131.105469 94.5 129.757812 92.953125 129.667969 C 91.398438 129.527344 90.042969 130.773438 89.953125 132.328125 L 88.882812 150.488281 C 88.828125 151.582031 89.421875 152.628906 90.40625 153.167969 C 92.269531 154.128906 93.429688 156.050781 93.429688 158.167969 C 93.429688 161.277344 90.890625 163.816406 87.78125 163.816406 C 84.667969 163.816406 82.128906 161.277344 82.128906 158.167969 C 82.128906 156.050781 83.289062 154.128906 85.152344 153.167969 C 86.136719 152.628906 86.730469 151.582031 86.675781 150.488281 L 85.605469 132.328125 C 85.515625 130.773438 84.136719 129.527344 82.605469 129.667969 C 81.058594 129.757812 79.867188 131.105469 79.957031 132.660156 L 80.101562 134.921875 C 76.394531 134.390625 72.808594 133.421875 69.332031 132.042969 L 70.578125 130.15625 C 71.449219 128.851562 71.085938 127.097656 69.785156 126.226562 C 68.484375 125.378906 66.738281 125.742188 65.855469 127.042969 L 55.859375 142.234375 C 55.242188 143.171875 55.242188 144.355469 55.839844 145.3125 C 56.964844 147.066406 57.019531 149.328125 55.949219 151.160156 C 54.394531 153.84375 50.953125 154.78125 48.238281 153.222656 C 46.9375 152.464844 45.976562 151.25 45.613281 149.78125 C 45.214844 148.335938 45.414062 146.8125 46.175781 145.511719 C 47.222656 143.679688 49.199219 142.578125 51.292969 142.6875 C 52.441406 142.6875 53.433594 142.125 53.941406 141.132812 L 62.105469 124.871094 C 62.777344 123.457031 62.214844 121.757812 60.835938 121.085938 C 59.445312 120.378906 57.757812 120.941406 57.054688 122.320312 L 56.039062 124.363281 C 53.125 122.046875 50.464844 119.386719 48.148438 116.472656 L 50.191406 115.457031 C 51.570312 114.753906 52.132812 113.066406 51.425781 111.675781 C 50.753906 110.296875 49.054688 109.734375 47.640625 110.40625 L 31.378906 118.570312 C 30.386719 119.078125 29.789062 120.09375 29.824219 121.21875 C 29.933594 123.3125 28.832031 125.289062 27 126.335938 C 25.699219 127.097656 24.175781 127.296875 22.730469 126.898438 C 21.261719 126.535156 20.046875 125.574219 19.289062 124.273438 C 17.730469 121.558594 18.667969 118.117188 21.351562 116.5625 C 23.183594 115.492188 25.445312 115.546875 27.199219 116.671875 C 28.15625 117.269531 29.339844 117.269531 30.277344 116.652344 L 45.46875 106.65625 C 46.769531 105.773438 47.132812 104.027344 46.285156 102.726562 C 45.414062 101.425781 43.660156 101.0625 42.355469 101.933594 L 40.46875 103.179688 C 39.089844 99.703125 38.121094 96.117188 37.589844 92.410156 L 39.851562 92.554688 C 41.375 92.644531 42.753906 91.453125 42.84375 89.90625 C 42.929688 88.351562 41.738281 86.996094 40.183594 86.90625 L 22.023438 85.835938 C 20.929688 85.746094 19.882812 86.375 19.34375 87.359375 C 18.382812 89.222656 16.460938 90.382812 14.34375 90.382812 C 11.234375 90.382812 8.695312 87.84375 8.695312 84.730469 C 8.695312 81.621094 11.234375 79.082031 14.34375 79.082031 C 16.460938 79.082031 18.382812 80.242188 19.34375 82.105469 C 19.882812 83.089844 20.929688 83.683594 22.023438 83.628906 L 40.183594 82.558594 C 41.738281 82.46875 42.929688 81.113281 42.84375 79.558594 C 42.753906 78.011719 41.375 76.765625 39.851562 76.910156 L 37.589844 77.054688 C 38.121094 73.347656 39.089844 69.761719 40.46875 66.285156 L 42.355469 67.53125 C 42.84375 67.839844 43.382812 68.019531 43.914062 68.019531 C 44.816406 68.019531 45.722656 67.554688 46.285156 66.738281 C 47.132812 65.4375 46.769531 63.691406 45.46875 62.808594 L 30.277344 52.8125 C 29.339844 52.195312 28.15625 52.195312 27.199219 52.792969 C 25.445312 53.917969 23.183594 53.972656 21.351562 52.902344 C 18.667969 51.347656 17.730469 47.90625 19.289062 45.191406 C 20.046875 43.890625 21.261719 42.929688 22.730469 42.566406 C 24.175781 42.167969 25.699219 42.367188 27 43.128906 C 28.832031 44.175781 29.933594 46.152344 29.824219 48.246094 C 29.789062 49.371094 30.386719 50.386719 31.378906 50.894531 L 47.640625 59.058594 C 49.054688 59.730469 50.753906 59.167969 51.425781 57.789062 C 52.132812 56.398438 51.570312 54.710938 50.191406 54.007812 L 48.148438 52.992188 C 50.464844 50.078125 53.125 47.417969 56.039062 45.101562 L 57.054688 47.144531 C 57.527344 48.125 58.542969 48.6875 59.566406 48.6875 C 59.988281 48.6875 60.441406 48.609375 60.835938 48.378906 C 62.214844 47.707031 62.777344 46.007812 62.105469 44.59375 L 53.941406 28.332031 C 53.433594 27.339844 52.441406 26.722656 51.292969 26.777344 C 49.199219 26.886719 47.222656 25.785156 46.175781 23.953125 C 45.414062 22.652344 45.214844 21.128906 45.613281 19.683594 C 45.976562 18.214844 46.9375 17 48.238281 16.242188 C 50.917969 14.683594 54.394531 15.621094 55.949219 18.304688 C 57.019531 20.136719 56.964844 22.398438 55.839844 24.152344 C 55.242188 25.109375 55.242188 26.292969 55.859375 27.230469 L 65.855469 42.421875 C 66.738281 43.722656 68.484375 44.085938 69.785156 43.238281 C 71.085938 42.367188 71.449219 40.613281 70.578125 39.308594 L 69.332031 37.421875 C 72.808594 36.042969 76.394531 35.074219 80.101562 34.542969 L 79.957031 36.804688 C 79.867188 38.359375 81.058594 39.707031 82.605469 39.796875 C 84.136719 39.882812 85.515625 38.691406 85.605469 37.136719 L 86.675781 18.976562 C 86.730469 17.882812 86.136719 16.835938 85.152344 16.296875 C 83.289062 15.335938 82.128906 13.414062 82.128906 11.296875 C 82.128906 8.1875 84.667969 5.648438 87.78125 5.648438 C 90.890625 5.648438 93.429688 8.1875 93.429688 11.296875 C 93.429688 13.414062 92.269531 15.335938 90.40625 16.296875 C 89.421875 16.835938 88.828125 17.882812 88.882812 18.976562 L 89.953125 37.136719 C 90.042969 38.636719 91.277344 39.796875 92.777344 39.796875 L 92.953125 39.796875 C 94.5 39.707031 95.691406 38.359375 95.601562 36.804688 L 95.457031 34.542969 C 99.164062 35.074219 102.75 36.042969 106.226562 37.421875 L 104.980469 39.308594 C 104.109375 40.613281 104.472656 42.367188 105.773438 43.238281 C 107.074219 44.085938 108.820312 43.722656 109.703125 42.421875 L 119.699219 27.230469 C 120.316406 26.292969 120.316406 25.109375 119.71875 24.152344 C 118.59375 22.398438 118.539062 20.136719 119.609375 18.304688 C 121.164062 15.621094 124.605469 14.683594 127.320312 16.242188 C 128.621094 17 129.582031 18.214844 129.945312 19.683594 C 130.34375 21.128906 130.144531 22.652344 129.382812 23.953125 C 128.335938 25.785156 126.359375 26.886719 124.265625 26.777344 C 123.117188 26.722656 122.125 27.339844 121.617188 28.332031 L 113.453125 44.59375 C 112.78125 46.007812 113.34375 47.707031 114.722656 48.378906 C 115.117188 48.609375 115.570312 48.6875 115.992188 48.6875 C 117.015625 48.6875 118.03125 48.125 118.503906 47.144531 L 119.519531 45.101562 C 122.433594 47.417969 125.09375 50.078125 127.410156 52.992188 L 125.367188 54.007812 C 123.988281 54.710938 123.425781 56.398438 124.132812 57.789062 C 124.804688 59.167969 126.503906 59.730469 127.917969 59.058594 L 144.179688 50.894531 C 145.171875 50.386719 145.769531 49.371094 145.734375 48.246094 C 145.625 46.152344 146.726562 44.175781 148.558594 43.128906 C 149.859375 42.367188 151.382812 42.167969 152.828125 42.566406 C 154.296875 42.929688 155.511719 43.890625 156.269531 45.191406 C 157.828125 47.90625 156.890625 51.347656 154.207031 52.902344 C 152.375 53.972656 150.113281 53.917969 148.359375 52.792969 C 147.402344 52.195312 146.21875 52.195312 145.28125 52.8125 L 130.089844 62.808594 C 128.789062 63.691406 128.425781 65.4375 129.273438 66.738281 C 129.835938 67.554688 130.742188 68.019531 131.644531 68.019531 C 132.175781 68.019531 132.714844 67.839844 133.203125 67.53125 L 135.089844 66.285156 C 136.46875 69.761719 137.4375 73.347656 137.96875 77.054688 L 135.707031 76.910156 C 134.152344 76.800781 132.804688 78.011719 132.714844 79.558594 C 132.628906 81.113281 133.820312 82.46875 135.375 82.558594 L 153.535156 83.628906 C 154.628906 83.71875 155.675781 83.089844 156.214844 82.105469 C 157.175781 80.242188 159.097656 79.082031 161.214844 79.082031 C 164.324219 79.082031 166.863281 81.621094 166.863281 84.730469 C 166.863281 87.84375 164.324219 90.382812 161.214844 90.382812 C 159.097656 90.382812 157.175781 89.222656 156.214844 87.359375 C 155.675781 86.375 154.628906 85.746094 153.535156 85.835938 L 135.375 86.90625 C 133.820312 86.996094 132.628906 88.351562 132.714844 89.90625 C 132.804688 91.453125 134.152344 92.644531 135.707031 92.554688 Z M 152.199219 91.5625 C 154.320312 94.363281 157.628906 96.03125 161.214844 96.03125 C 167.457031 96.03125 172.511719 90.976562 172.511719 84.730469 C 172.511719 78.488281 167.457031 73.433594 161.214844 73.433594 C 157.628906 73.433594 154.320312 75.101562 152.199219 77.902344 L 143.703125 77.382812 C 143.085938 72.441406 141.808594 67.675781 139.886719 63.128906 L 147.003906 58.441406 C 150.226562 59.785156 153.921875 59.597656 157.03125 57.789062 C 162.425781 54.679688 164.269531 47.761719 161.160156 42.367188 C 158.046875 36.972656 151.128906 35.105469 145.734375 38.238281 C 142.625 40.015625 140.59375 43.128906 140.175781 46.570312 L 132.550781 50.421875 C 129.550781 46.460938 126.050781 42.960938 122.089844 39.960938 L 125.941406 32.335938 C 129.382812 31.917969 132.496094 29.886719 134.273438 26.777344 C 137.40625 21.382812 135.539062 14.464844 130.144531 11.351562 C 124.75 8.242188 117.832031 10.085938 114.722656 15.480469 C 112.914062 18.589844 112.726562 22.285156 114.070312 25.507812 L 109.382812 32.625 C 104.835938 30.703125 100.070312 29.425781 95.128906 28.808594 L 94.609375 20.3125 C 97.410156 18.191406 99.078125 14.882812 99.078125 11.296875 C 99.078125 5.054688 94.023438 0 87.78125 0 C 81.535156 0 76.480469 5.054688 76.480469 11.296875 C 76.480469 14.882812 78.148438 18.191406 80.949219 20.3125 L 80.429688 28.808594 C 75.488281 29.425781 70.722656 30.703125 66.175781 32.625 L 61.488281 25.507812 C 62.835938 22.285156 62.644531 18.589844 60.835938 15.480469 C 57.726562 10.085938 50.808594 8.242188 45.414062 11.351562 C 40.019531 14.464844 38.152344 21.382812 41.285156 26.777344 C 43.0625 29.886719 46.175781 31.917969 49.617188 32.335938 L 53.46875 39.960938 C 49.507812 42.960938 46.007812 46.460938 43.007812 50.421875 L 35.382812 46.570312 C 34.964844 43.128906 32.933594 40.015625 29.824219 38.238281 C 24.429688 35.105469 17.511719 36.972656 14.398438 42.367188 C 11.289062 47.761719 13.132812 54.679688 18.527344 57.789062 C 21.636719 59.597656 25.332031 59.785156 28.554688 58.441406 L 35.671875 63.128906 C 33.75 67.675781 32.472656 72.441406 31.855469 77.382812 L 23.359375 77.902344 C 21.238281 75.101562 17.929688 73.433594 14.34375 73.433594 C 8.101562 73.433594 3.046875 78.488281 3.046875 84.730469 C 3.046875 90.976562 8.101562 96.03125 14.34375 96.03125 C 17.929688 96.03125 21.238281 94.363281 23.359375 91.5625 L 31.855469 92.082031 C 32.472656 97.023438 33.75 101.789062 35.671875 106.335938 L 28.554688 111.023438 C 25.332031 109.675781 21.636719 109.867188 18.527344 111.675781 C 13.132812 114.785156 11.289062 121.703125 14.398438 127.097656 C 16.496094 130.71875 20.300781 132.746094 24.195312 132.746094 C 26.117188 132.746094 28.070312 132.273438 29.824219 131.226562 C 32.933594 129.449219 34.964844 126.335938 35.382812 122.894531 L 43.007812 119.042969 C 46.007812 123.003906 49.507812 126.503906 53.46875 129.503906 L 49.617188 137.128906 C 46.175781 137.546875 43.0625 139.578125 41.285156 142.6875 C 38.152344 148.082031 40.019531 155 45.414062 158.113281 C 47.1875 159.128906 49.109375 159.632812 51.027344 159.632812 C 54.957031 159.632812 58.742188 157.605469 60.835938 153.984375 C 62.644531 150.875 62.835938 147.179688 61.488281 143.957031 L 66.175781 136.839844 C 70.722656 138.761719 75.488281 140.039062 80.429688 140.65625 L 80.949219 149.152344 C 78.148438 151.273438 76.480469 154.582031 76.480469 158.167969 C 76.480469 164.410156 81.535156 169.464844 87.78125 169.464844 C 94.023438 169.464844 99.078125 164.410156 99.078125 158.167969 C 99.078125 154.582031 97.410156 151.273438 94.609375 149.152344 L 95.128906 140.65625 C 100.070312 140.039062 104.835938 138.761719 109.382812 136.839844 L 114.070312 143.957031 C 112.726562 147.179688 112.914062 150.875 114.722656 153.984375 C 116.816406 157.605469 120.601562 159.632812 124.53125 159.632812 C 126.449219 159.632812 128.371094 159.128906 130.144531 158.113281 C 135.539062 155 137.40625 148.082031 134.273438 142.6875 C 132.496094 139.578125 129.382812 137.546875 125.941406 137.128906 L 122.089844 129.503906 C 126.050781 126.503906 129.550781 123.003906 132.550781 119.042969 L 140.175781 122.894531 C 140.59375 126.335938 142.625 129.449219 145.734375 131.226562 C 147.511719 132.273438 149.441406 132.746094 151.363281 132.746094 C 155.257812 132.746094 159.0625 130.71875 161.160156 127.097656 C 164.269531 121.703125 162.425781 114.785156 157.03125 111.675781 C 153.921875 109.867188 150.226562 109.675781 147.003906 111.023438 L 139.886719 106.335938 C 141.808594 101.789062 143.085938 97.023438 143.703125 92.082031 L 152.199219 91.5625 "/>
</g>
<path style=" stroke:none;fill-rule:nonzero;fill:rgb(6.269836%,5.879211%,5.099487%);fill-opacity:1;" d="M 72.199219 93.328125 C 70.734375 93.855469 69.972656 95.476562 70.5 96.945312 C 70.722656 97.550781 70.832031 98.191406 70.832031 98.855469 C 70.832031 101.964844 68.296875 104.503906 65.183594 104.503906 C 62.074219 104.503906 59.535156 101.964844 59.535156 98.855469 C 59.535156 95.742188 62.074219 93.207031 65.183594 93.207031 C 66.738281 93.207031 68.007812 91.9375 68.007812 90.382812 C 68.007812 88.824219 66.738281 87.558594 65.183594 87.558594 C 58.949219 87.558594 53.886719 92.621094 53.886719 98.855469 C 53.886719 105.089844 58.949219 110.152344 65.183594 110.152344 C 71.417969 110.152344 76.480469 105.089844 76.480469 98.855469 C 76.480469 97.542969 76.261719 96.261719 75.820312 95.039062 C 75.289062 93.570312 73.667969 92.796875 72.199219 93.328125 "/>
<path style=" stroke:none;fill-rule:nonzero;fill:rgb(6.269836%,5.879211%,5.099487%);fill-opacity:1;" d="M 113.199219 87.558594 C 106.964844 87.558594 101.902344 92.621094 101.902344 98.855469 C 101.902344 100.210938 102.144531 101.546875 102.617188 102.816406 C 103.171875 104.273438 104.804688 105.011719 106.25 104.46875 C 107.714844 103.917969 108.453125 102.296875 107.902344 100.828125 C 107.671875 100.199219 107.550781 99.539062 107.550781 98.855469 C 107.550781 95.742188 110.085938 93.207031 113.199219 93.207031 C 116.308594 93.207031 118.847656 95.742188 118.847656 98.855469 C 118.847656 101.964844 116.308594 104.503906 113.199219 104.503906 C 111.644531 104.503906 110.375 105.773438 110.375 107.328125 C 110.375 108.882812 111.644531 110.152344 113.199219 110.152344 C 119.433594 110.152344 124.496094 105.089844 124.496094 98.855469 C 124.496094 92.621094 119.433594 87.558594 113.199219 87.558594 "/>
<path style=" stroke:none;fill-rule:nonzero;fill:rgb(6.269836%,5.879211%,5.099487%);fill-opacity:1;" d="M 62.359375 67.785156 C 63.914062 67.785156 65.183594 69.054688 65.183594 70.609375 C 65.183594 72.164062 63.914062 73.433594 62.359375 73.433594 C 60.804688 73.433594 59.535156 72.164062 59.535156 70.609375 C 59.535156 69.054688 60.804688 67.785156 62.359375 67.785156 Z M 62.359375 79.082031 C 67.039062 79.082031 70.832031 75.289062 70.832031 70.609375 C 70.832031 65.933594 67.039062 62.136719 62.359375 62.136719 C 57.679688 62.136719 53.886719 65.933594 53.886719 70.609375 C 53.886719 75.289062 57.679688 79.082031 62.359375 79.082031 "/>
<path style=" stroke:none;fill-rule:nonzero;fill:rgb(6.269836%,5.879211%,5.099487%);fill-opacity:1;" d="M 90.605469 118.625 C 89.046875 118.625 87.78125 117.355469 87.78125 115.800781 C 87.78125 114.246094 89.046875 112.976562 90.605469 112.976562 C 92.160156 112.976562 93.429688 114.246094 93.429688 115.800781 C 93.429688 117.355469 92.160156 118.625 90.605469 118.625 Z M 90.605469 107.328125 C 85.925781 107.328125 82.128906 111.121094 82.128906 115.800781 C 82.128906 120.480469 85.925781 124.273438 90.605469 124.273438 C 95.28125 124.273438 99.078125 120.480469 99.078125 115.800781 C 99.078125 111.121094 95.28125 107.328125 90.605469 107.328125 "/>
<path style=" stroke:none;fill-rule:nonzero;fill:rgb(6.269836%,5.879211%,5.099487%);fill-opacity:1;" d="M 113.199219 64.960938 C 114.753906 64.960938 116.023438 66.230469 116.023438 67.785156 C 116.023438 69.339844 114.753906 70.609375 113.199219 70.609375 C 111.644531 70.609375 110.375 69.339844 110.375 67.785156 C 110.375 66.230469 111.644531 64.960938 113.199219 64.960938 Z M 113.199219 76.257812 C 117.878906 76.257812 121.671875 72.464844 121.671875 67.785156 C 121.671875 63.109375 117.878906 59.3125 113.199219 59.3125 C 108.519531 59.3125 104.726562 63.109375 104.726562 67.785156 C 104.726562 72.464844 108.519531 76.257812 113.199219 76.257812 "/>
<path style=" stroke:none;fill-rule:nonzero;fill:rgb(6.269836%,5.879211%,5.099487%);fill-opacity:1;" d="M 84.953125 84.730469 C 84.953125 83.175781 86.222656 81.90625 87.78125 81.90625 C 89.335938 81.90625 90.605469 83.175781 90.605469 84.730469 C 90.605469 86.289062 89.335938 87.558594 87.78125 87.558594 C 86.222656 87.558594 84.953125 86.289062 84.953125 84.730469 Z M 96.253906 84.730469 C 96.253906 80.054688 92.457031 76.257812 87.78125 76.257812 C 83.101562 76.257812 79.304688 80.054688 79.304688 84.730469 C 79.304688 89.410156 83.101562 93.207031 87.78125 93.207031 C 92.457031 93.207031 96.253906 89.410156 96.253906 84.730469 "/>
</g>
</svg>
